<svg version="1.0" xmlns="http://www.w3.org/2000/svg"
 width="512.000000pt" height="512.000000pt" viewBox="0 0 512.000000 512.000000"
 preserveAspectRatio="xMidYMid meet">

<g transform="translate(0.000000,512.000000) scale(0.100000,-0.100000)"
fill="#05668d" stroke="none">
<path d="M0 2560 l0 -2560 2560 0 2560 0 0 2560 0 2560 -2560 0 -2560 0 0
-2560z m3216 1525 c250 -74 362 -422 245 -761 -57 -167 -154 -285 -288 -351
-66 -32 -87 -38 -142 -38 -118 0 -234 83 -301 214 -48 97 -63 176 -57 321 3
107 9 139 36 220 68 202 192 340 348 390 71 23 96 24 159 5z m-1096 -30 c156
-63 293 -241 346 -450 26 -101 26 -310 0 -385 -65 -189 -180 -290 -330 -290
-79 0 -196 61 -280 146 -76 76 -145 205 -177 329 -25 95 -30 280 -10 365 19
77 67 164 120 217 100 98 204 119 331 68z m1859 -903 c155 -76 227 -295 173
-523 -61 -252 -218 -432 -423 -485 -158 -41 -298 41 -362 212 -28 77 -30 255
-3 354 34 127 90 225 179 314 92 91 157 131 250 151 76 16 116 11 186 -23z
m-2574 -43 c66 -18 180 -95 248 -169 77 -83 140 -198 167 -306 24 -92 26 -235
6 -312 -43 -160 -184 -261 -327 -233 -119 24 -240 99 -327 204 -94 113 -162
301 -162 444 0 81 25 187 55 238 65 112 210 169 340 134z m1420 -619 c201 -63
411 -253 618 -559 31 -46 57 -88 57 -93 0 -6 -17 -42 -37 -82 -41 -78 -149
-194 -204 -216 -28 -12 -33 -12 -45 5 -20 27 -27 98 -20 199 8 109 7 165 -2
182 -4 7 -27 26 -51 42 l-45 30 -49 -41 c-27 -23 -85 -86 -128 -139 -73 -89
-134 -147 -145 -136 -2 3 5 51 16 107 34 171 35 199 10 264 -18 47 -33 67 -78
103 -49 39 -62 44 -92 40 -47 -7 -78 -42 -154 -171 -118 -199 -288 -465 -298
-465 -5 0 -7 8 -4 18 2 9 14 69 25 132 12 63 28 149 36 191 14 72 14 80 -5
140 -10 35 -36 90 -56 122 -29 46 -45 61 -85 78 -27 12 -49 25 -49 29 0 13 90
82 171 130 78 47 202 94 294 110 82 15 241 4 320 -20z m-902 -412 c-8 -35 -30
-121 -50 -193 -58 -211 -63 -243 -70 -402 -5 -130 -3 -159 11 -198 44 -113
151 -128 263 -36 42 35 75 85 131 199 27 55 53 97 63 99 10 3 22 18 28 34 5
16 16 29 24 29 9 0 25 29 41 73 15 40 43 97 62 126 19 29 48 82 63 119 29 72
124 202 147 202 25 0 15 -38 -45 -174 -131 -295 -166 -495 -100 -562 60 -60
143 -30 226 81 91 123 136 177 205 248 73 73 88 95 88 125 0 12 17 30 42 47
l41 27 -7 -58 c-31 -253 -29 -289 21 -339 78 -77 159 -82 237 -14 62 55 139
164 160 227 10 30 23 51 29 49 20 -6 94 -157 128 -257 39 -116 45 -227 16
-302 -27 -70 -101 -133 -189 -159 -103 -32 -177 -23 -321 36 -235 98 -334 128
-437 133 -125 6 -220 -10 -360 -59 -268 -95 -319 -109 -408 -115 -70 -5 -100
-3 -140 10 -105 35 -201 156 -217 276 -12 90 58 327 155 520 47 95 158 270
170 270 4 0 1 -28 -7 -62z"/>
</g>
</svg>
